# xmcd CD database file
#
# Track frame offsets:
#	150
#	42132
#	91160
#	142542
#	167752
#	202395
#
# Disc length: 3164 seconds
#
# Revision: 0
# Processed by: cddbd v1.5.2PL0 Copyright (c) Steve Scherf et al.
# Submitted via: CDex 1.51
#
DISCID=470c5a06
DTITLE=Nox - Spring Blossoms
DYEAR=2004
DGENRE=New Age
TTITLE0=April Sun
TTITLE1=Nature's Awakening
TTITLE2=Cherry Blossoms
TTITLE3=Cuckoo in the Woods
TTITLE4=Flushing Meadows
TTITLE5=Drifting with Clouds
EXTD=YEAR: 2004
EXTT0=
EXTT1=
EXTT2=
EXTT3=
EXTT4=
EXTT5=
PLAYORDER=
